<mxfile host="app.diagrams.net" modified="2021-01-17T22:32:41.062Z" agent="5.0 (Windows NT 10.0; Win64; x64) AppleWebKit/537.36 (KHTML, like Gecko) Chrome/87.0.4280.141 Safari/537.36" etag="aMP6yYpPowWZLyocf-Sl" version="14.2.4" type="github" pages="5">
  <diagram id="4oy8QzDiB6QRUBUMDUoN" name="UseCase: Igranje 2048">
    <mxGraphModel dx="1038" dy="580" grid="1" gridSize="10" guides="1" tooltips="1" connect="1" arrows="1" fold="1" page="1" pageScale="1" pageWidth="827" pageHeight="1169" math="0" shadow="0">
      <root>
        <mxCell id="0" />
        <mxCell id="1" parent="0" />
        <mxCell id="UtJjpzWJMwNSMbZmCYVx-2" value="Igrač" style="shape=umlActor;verticalLabelPosition=bottom;verticalAlign=top;html=1;" parent="1" vertex="1">
          <mxGeometry x="70" y="270" width="50" height="75" as="geometry" />
        </mxCell>
        <mxCell id="UtJjpzWJMwNSMbZmCYVx-3" value="Igranje 2048" style="ellipse;whiteSpace=wrap;html=1;" parent="1" vertex="1">
          <mxGeometry x="290" y="275" width="140" height="70" as="geometry" />
        </mxCell>
        <mxCell id="UtJjpzWJMwNSMbZmCYVx-4" value="" style="endArrow=none;html=1;exitX=0;exitY=0.5;exitDx=0;exitDy=0;" parent="1" source="UtJjpzWJMwNSMbZmCYVx-3" edge="1">
          <mxGeometry width="50" height="50" relative="1" as="geometry">
            <mxPoint x="530" y="590" as="sourcePoint" />
            <mxPoint x="130" y="310" as="targetPoint" />
          </mxGeometry>
        </mxCell>
        <mxCell id="G9BYI7_02Bs0RA9_PzGR-3" value="Odabir igre&lt;span style=&quot;color: rgba(0 , 0 , 0 , 0) ; font-family: monospace ; font-size: 0px&quot;&gt;%3CmxGraphModel%3E%3Croot%3E%3CmxCell%20id%3D%220%22%2F%3E%3CmxCell%20id%3D%221%22%20parent%3D%220%22%2F%3E%3CmxCell%20id%3D%222%22%20value%3D%22Igranje%202048%22%20style%3D%22ellipse%3BwhiteSpace%3Dwrap%3Bhtml%3D1%3B%22%20vertex%3D%221%22%20parent%3D%221%22%3E%3CmxGeometry%20x%3D%22290%22%20y%3D%22275%22%20width%3D%22140%22%20height%3D%2270%22%20as%3D%22geometry%22%2F%3E%3C%2FmxCell%3E%3C%2Froot%3E%3C%2FmxGraphModel%3E&lt;/span&gt;" style="ellipse;whiteSpace=wrap;html=1;" parent="1" vertex="1">
          <mxGeometry x="500" y="180" width="140" height="70" as="geometry" />
        </mxCell>
        <mxCell id="G9BYI7_02Bs0RA9_PzGR-4" value="Potez" style="ellipse;whiteSpace=wrap;html=1;" parent="1" vertex="1">
          <mxGeometry x="530" y="410" width="140" height="70" as="geometry" />
        </mxCell>
        <mxCell id="G9BYI7_02Bs0RA9_PzGR-9" value="Use" style="endArrow=block;endSize=16;endFill=0;html=1;exitX=1;exitY=0;exitDx=0;exitDy=0;" parent="1" target="G9BYI7_02Bs0RA9_PzGR-3" edge="1">
          <mxGeometry width="160" relative="1" as="geometry">
            <mxPoint x="419.4974746830583" y="295.25126265847086" as="sourcePoint" />
            <mxPoint x="550.5025253169417" y="229.74873734152914" as="targetPoint" />
          </mxGeometry>
        </mxCell>
        <mxCell id="G9BYI7_02Bs0RA9_PzGR-10" value="Use" style="endArrow=block;endSize=16;endFill=0;html=1;exitX=1;exitY=0;exitDx=0;exitDy=0;entryX=0;entryY=0.5;entryDx=0;entryDy=0;" parent="1" target="G9BYI7_02Bs0RA9_PzGR-4" edge="1">
          <mxGeometry width="160" relative="1" as="geometry">
            <mxPoint x="429.4974746830583" y="305.25126265847086" as="sourcePoint" />
            <mxPoint x="560.5025253169417" y="239.74873734152914" as="targetPoint" />
          </mxGeometry>
        </mxCell>
      </root>
    </mxGraphModel>
  </diagram>
  <diagram id="qMPHA3hrOo82yHzI00W6" name="Activity: igranje 2048">
    <mxGraphModel dx="1038" dy="580" grid="1" gridSize="10" guides="1" tooltips="1" connect="1" arrows="1" fold="1" page="1" pageScale="1" pageWidth="827" pageHeight="1169" math="0" shadow="0">
      <root>
        <mxCell id="uWv3LQWqG7xGrmStCNz2-0" />
        <mxCell id="uWv3LQWqG7xGrmStCNz2-1" parent="uWv3LQWqG7xGrmStCNz2-0" />
        <mxCell id="8WPMr-6D1gSvEdCE4k1P-1" value="" style="ellipse;html=1;shape=startState;fillColor=#000000;strokeColor=#ff0000;" parent="uWv3LQWqG7xGrmStCNz2-1" vertex="1">
          <mxGeometry x="364" y="10" width="30" height="30" as="geometry" />
        </mxCell>
        <mxCell id="8WPMr-6D1gSvEdCE4k1P-2" value="" style="edgeStyle=orthogonalEdgeStyle;html=1;verticalAlign=bottom;endArrow=open;endSize=8;strokeColor=#ff0000;" parent="uWv3LQWqG7xGrmStCNz2-1" source="8WPMr-6D1gSvEdCE4k1P-1" edge="1">
          <mxGeometry relative="1" as="geometry">
            <mxPoint x="379" y="70" as="targetPoint" />
          </mxGeometry>
        </mxCell>
        <mxCell id="7Bjk3WJBLaYdoAIEU7ds-0" value="Odabir igre&lt;br&gt;" style="rhombus;whiteSpace=wrap;html=1;fillColor=#ffffc0;strokeColor=#ff0000;" vertex="1" parent="uWv3LQWqG7xGrmStCNz2-1">
          <mxGeometry x="340" y="70" width="80" height="40" as="geometry" />
        </mxCell>
        <mxCell id="7Bjk3WJBLaYdoAIEU7ds-1" value="Stara igra" style="edgeStyle=orthogonalEdgeStyle;html=1;align=left;verticalAlign=bottom;endArrow=open;endSize=8;strokeColor=#ff0000;" edge="1" source="7Bjk3WJBLaYdoAIEU7ds-0" parent="uWv3LQWqG7xGrmStCNz2-1">
          <mxGeometry x="-1" relative="1" as="geometry">
            <mxPoint x="520" y="90" as="targetPoint" />
          </mxGeometry>
        </mxCell>
        <mxCell id="7Bjk3WJBLaYdoAIEU7ds-2" value="Nova igra" style="edgeStyle=orthogonalEdgeStyle;html=1;align=left;verticalAlign=top;endArrow=open;endSize=8;strokeColor=#ff0000;" edge="1" source="7Bjk3WJBLaYdoAIEU7ds-0" parent="uWv3LQWqG7xGrmStCNz2-1">
          <mxGeometry x="-1" relative="1" as="geometry">
            <mxPoint x="380" y="170" as="targetPoint" />
          </mxGeometry>
        </mxCell>
        <mxCell id="7Bjk3WJBLaYdoAIEU7ds-3" value="Poništavanje posljednjeg poteza" style="rounded=1;whiteSpace=wrap;html=1;arcSize=40;fontColor=#000000;fillColor=#ffffc0;strokeColor=#ff0000;" vertex="1" parent="uWv3LQWqG7xGrmStCNz2-1">
          <mxGeometry x="520" y="70" width="120" height="40" as="geometry" />
        </mxCell>
        <mxCell id="7Bjk3WJBLaYdoAIEU7ds-4" value="" style="edgeStyle=orthogonalEdgeStyle;html=1;verticalAlign=bottom;endArrow=open;endSize=8;strokeColor=#ff0000;entryX=1;entryY=0;entryDx=0;entryDy=0;" edge="1" source="7Bjk3WJBLaYdoAIEU7ds-3" parent="uWv3LQWqG7xGrmStCNz2-1" target="7Bjk3WJBLaYdoAIEU7ds-5">
          <mxGeometry relative="1" as="geometry">
            <mxPoint x="700" y="130" as="targetPoint" />
            <Array as="points">
              <mxPoint x="580" y="140" />
              <mxPoint x="400" y="140" />
            </Array>
          </mxGeometry>
        </mxCell>
        <mxCell id="7Bjk3WJBLaYdoAIEU7ds-5" value="Vrijednosti" style="rhombus;whiteSpace=wrap;html=1;fillColor=#ffffc0;strokeColor=#ff0000;" vertex="1" parent="uWv3LQWqG7xGrmStCNz2-1">
          <mxGeometry x="340" y="170" width="80" height="40" as="geometry" />
        </mxCell>
        <mxCell id="7Bjk3WJBLaYdoAIEU7ds-6" value="Različite susjedne vrijednosti" style="edgeStyle=orthogonalEdgeStyle;html=1;align=left;verticalAlign=bottom;endArrow=open;endSize=8;strokeColor=#ff0000;entryX=0;entryY=0.5;entryDx=0;entryDy=0;" edge="1" source="7Bjk3WJBLaYdoAIEU7ds-5" parent="uWv3LQWqG7xGrmStCNz2-1" target="7Bjk3WJBLaYdoAIEU7ds-10">
          <mxGeometry x="-1" relative="1" as="geometry">
            <mxPoint x="570" y="190" as="targetPoint" />
            <Array as="points">
              <mxPoint x="590" y="190" />
            </Array>
          </mxGeometry>
        </mxCell>
        <mxCell id="7Bjk3WJBLaYdoAIEU7ds-7" value="Iste susjedne vrijednosti" style="edgeStyle=orthogonalEdgeStyle;html=1;align=left;verticalAlign=top;endArrow=open;endSize=8;strokeColor=#ff0000;" edge="1" source="7Bjk3WJBLaYdoAIEU7ds-5" parent="uWv3LQWqG7xGrmStCNz2-1">
          <mxGeometry x="-0.6667" y="-120" relative="1" as="geometry">
            <mxPoint x="380" y="270" as="targetPoint" />
            <mxPoint as="offset" />
          </mxGeometry>
        </mxCell>
        <mxCell id="7Bjk3WJBLaYdoAIEU7ds-17" style="edgeStyle=orthogonalEdgeStyle;rounded=0;orthogonalLoop=1;jettySize=auto;html=1;entryX=0.5;entryY=0;entryDx=0;entryDy=0;" edge="1" parent="uWv3LQWqG7xGrmStCNz2-1" source="7Bjk3WJBLaYdoAIEU7ds-8" target="7Bjk3WJBLaYdoAIEU7ds-12">
          <mxGeometry relative="1" as="geometry" />
        </mxCell>
        <mxCell id="7Bjk3WJBLaYdoAIEU7ds-8" value="Spajanje kvadrata s istim vrijednostima" style="rounded=1;whiteSpace=wrap;html=1;arcSize=40;fontColor=#000000;fillColor=#ffffc0;strokeColor=#ff0000;" vertex="1" parent="uWv3LQWqG7xGrmStCNz2-1">
          <mxGeometry x="320" y="270" width="120" height="40" as="geometry" />
        </mxCell>
        <mxCell id="7Bjk3WJBLaYdoAIEU7ds-9" value="" style="edgeStyle=orthogonalEdgeStyle;html=1;verticalAlign=bottom;endArrow=open;endSize=8;strokeColor=#ff0000;entryX=0;entryY=0.5;entryDx=0;entryDy=0;" edge="1" source="7Bjk3WJBLaYdoAIEU7ds-8" parent="uWv3LQWqG7xGrmStCNz2-1" target="7Bjk3WJBLaYdoAIEU7ds-5">
          <mxGeometry relative="1" as="geometry">
            <mxPoint x="380" y="370" as="targetPoint" />
            <Array as="points">
              <mxPoint x="170" y="290" />
              <mxPoint x="170" y="190" />
            </Array>
          </mxGeometry>
        </mxCell>
        <mxCell id="7Bjk3WJBLaYdoAIEU7ds-10" value="Generiranje novih kvadrata s novim vrijednostima" style="rounded=1;whiteSpace=wrap;html=1;arcSize=40;fontColor=#000000;fillColor=#ffffc0;strokeColor=#ff0000;" vertex="1" parent="uWv3LQWqG7xGrmStCNz2-1">
          <mxGeometry x="610" y="165" width="130" height="50" as="geometry" />
        </mxCell>
        <mxCell id="7Bjk3WJBLaYdoAIEU7ds-11" value="" style="edgeStyle=orthogonalEdgeStyle;html=1;verticalAlign=bottom;endArrow=open;endSize=8;strokeColor=#ff0000;" edge="1" source="7Bjk3WJBLaYdoAIEU7ds-10" parent="uWv3LQWqG7xGrmStCNz2-1" target="7Bjk3WJBLaYdoAIEU7ds-5">
          <mxGeometry relative="1" as="geometry">
            <mxPoint x="580" y="270" as="targetPoint" />
            <Array as="points">
              <mxPoint x="640" y="240" />
              <mxPoint x="400" y="240" />
            </Array>
          </mxGeometry>
        </mxCell>
        <mxCell id="7Bjk3WJBLaYdoAIEU7ds-12" value="" style="ellipse;html=1;shape=endState;fillColor=#000000;strokeColor=#ff0000;" vertex="1" parent="uWv3LQWqG7xGrmStCNz2-1">
          <mxGeometry x="365" y="410" width="30" height="30" as="geometry" />
        </mxCell>
      </root>
    </mxGraphModel>
  </diagram>
  <diagram id="A5A8IINjDiZnL8NDesJq" name="activity: Odabir igre">
    <mxGraphModel dx="1038" dy="580" grid="1" gridSize="10" guides="1" tooltips="1" connect="1" arrows="1" fold="1" page="1" pageScale="1" pageWidth="827" pageHeight="1169" math="0" shadow="0">
      <root>
        <mxCell id="b04PrGEVNCN0tS7fzhZB-0" />
        <mxCell id="b04PrGEVNCN0tS7fzhZB-1" parent="b04PrGEVNCN0tS7fzhZB-0" />
        <mxCell id="b04PrGEVNCN0tS7fzhZB-2" value="" style="ellipse;html=1;shape=startState;fillColor=#000000;strokeColor=#ff0000;" parent="b04PrGEVNCN0tS7fzhZB-1" vertex="1">
          <mxGeometry x="270" y="30" width="30" height="30" as="geometry" />
        </mxCell>
        <mxCell id="b04PrGEVNCN0tS7fzhZB-3" value="" style="edgeStyle=orthogonalEdgeStyle;html=1;verticalAlign=bottom;endArrow=open;endSize=8;strokeColor=#ff0000;" parent="b04PrGEVNCN0tS7fzhZB-1" source="b04PrGEVNCN0tS7fzhZB-2" edge="1">
          <mxGeometry relative="1" as="geometry">
            <mxPoint x="285" y="120" as="targetPoint" />
          </mxGeometry>
        </mxCell>
        <mxCell id="b04PrGEVNCN0tS7fzhZB-8" value="Odabir igre" style="rhombus;whiteSpace=wrap;html=1;fillColor=#ffffc0;strokeColor=#ff0000;" parent="b04PrGEVNCN0tS7fzhZB-1" vertex="1">
          <mxGeometry x="225" y="120" width="120" height="60" as="geometry" />
        </mxCell>
        <mxCell id="b04PrGEVNCN0tS7fzhZB-9" value="Posljednja odigrana igra" style="edgeStyle=orthogonalEdgeStyle;html=1;align=left;verticalAlign=bottom;endArrow=open;endSize=8;strokeColor=#ff0000;entryX=0.5;entryY=0;entryDx=0;entryDy=0;" parent="b04PrGEVNCN0tS7fzhZB-1" source="b04PrGEVNCN0tS7fzhZB-8" edge="1" target="a5haz4Kcl7DfUj_6n5zY-0">
          <mxGeometry x="-0.913" y="10" relative="1" as="geometry">
            <mxPoint x="520" y="150" as="targetPoint" />
            <mxPoint as="offset" />
            <Array as="points" />
          </mxGeometry>
        </mxCell>
        <mxCell id="b04PrGEVNCN0tS7fzhZB-10" value="Nova igra" style="edgeStyle=orthogonalEdgeStyle;html=1;align=left;verticalAlign=top;endArrow=open;endSize=8;strokeColor=#ff0000;exitX=0.5;exitY=1;exitDx=0;exitDy=0;entryX=0;entryY=0.5;entryDx=0;entryDy=0;" parent="b04PrGEVNCN0tS7fzhZB-1" source="b04PrGEVNCN0tS7fzhZB-8" target="a5haz4Kcl7DfUj_6n5zY-0" edge="1">
          <mxGeometry x="-1" y="-55" relative="1" as="geometry">
            <mxPoint x="285" y="240" as="targetPoint" />
            <Array as="points">
              <mxPoint x="285" y="285" />
            </Array>
            <mxPoint as="offset" />
          </mxGeometry>
        </mxCell>
        <mxCell id="a5haz4Kcl7DfUj_6n5zY-0" value="" style="ellipse;html=1;shape=endState;fillColor=#000000;strokeColor=#ff0000;" parent="b04PrGEVNCN0tS7fzhZB-1" vertex="1">
          <mxGeometry x="580" y="270" width="30" height="30" as="geometry" />
        </mxCell>
      </root>
    </mxGraphModel>
  </diagram>
  <diagram id="htYPMLxTB3qMT__Xx42L" name="activity: Potez">
    <mxGraphModel dx="1038" dy="580" grid="1" gridSize="10" guides="1" tooltips="1" connect="1" arrows="1" fold="1" page="1" pageScale="1" pageWidth="827" pageHeight="1169" math="0" shadow="0">
      <root>
        <mxCell id="UOArGjMOnj6770dY3t-1-0" />
        <mxCell id="UOArGjMOnj6770dY3t-1-1" parent="UOArGjMOnj6770dY3t-1-0" />
        <mxCell id="UOArGjMOnj6770dY3t-1-2" value="" style="ellipse;html=1;shape=startState;fillColor=#000000;strokeColor=#ff0000;" parent="UOArGjMOnj6770dY3t-1-1" vertex="1">
          <mxGeometry x="352.5" y="10" width="30" height="30" as="geometry" />
        </mxCell>
        <mxCell id="UOArGjMOnj6770dY3t-1-3" value="" style="edgeStyle=orthogonalEdgeStyle;html=1;verticalAlign=bottom;endArrow=open;endSize=8;strokeColor=#ff0000;entryX=0.5;entryY=0;entryDx=0;entryDy=0;" parent="UOArGjMOnj6770dY3t-1-1" source="UOArGjMOnj6770dY3t-1-2" target="UOArGjMOnj6770dY3t-1-6" edge="1">
          <mxGeometry relative="1" as="geometry">
            <mxPoint x="365" y="100" as="targetPoint" />
          </mxGeometry>
        </mxCell>
        <mxCell id="UOArGjMOnj6770dY3t-1-6" value="Vrijednosti" style="rhombus;whiteSpace=wrap;html=1;fillColor=#ffffc0;strokeColor=#ff0000;" parent="UOArGjMOnj6770dY3t-1-1" vertex="1">
          <mxGeometry x="300" y="100" width="135" height="80" as="geometry" />
        </mxCell>
        <mxCell id="UOArGjMOnj6770dY3t-1-7" value="Susjedne vrijednosti su jednake" style="edgeStyle=orthogonalEdgeStyle;html=1;align=left;verticalAlign=bottom;endArrow=open;endSize=8;strokeColor=#ff0000;entryX=0;entryY=0.5;entryDx=0;entryDy=0;" parent="UOArGjMOnj6770dY3t-1-1" source="UOArGjMOnj6770dY3t-1-6" target="Vs49O1Ujdl4DnX6av6ZH-0" edge="1">
          <mxGeometry x="-0.9429" relative="1" as="geometry">
            <mxPoint x="580" y="140" as="targetPoint" />
            <mxPoint as="offset" />
          </mxGeometry>
        </mxCell>
        <mxCell id="UOArGjMOnj6770dY3t-1-8" value="Susjedne vrijednosti su različite" style="edgeStyle=orthogonalEdgeStyle;html=1;align=left;verticalAlign=top;endArrow=open;endSize=8;strokeColor=#ff0000;entryX=0.5;entryY=0;entryDx=0;entryDy=0;" parent="UOArGjMOnj6770dY3t-1-1" source="UOArGjMOnj6770dY3t-1-6" edge="1" target="UOArGjMOnj6770dY3t-1-11">
          <mxGeometry x="-0.7647" y="-157" relative="1" as="geometry">
            <mxPoint x="360" y="350" as="targetPoint" />
            <mxPoint as="offset" />
            <Array as="points" />
          </mxGeometry>
        </mxCell>
        <mxCell id="UOArGjMOnj6770dY3t-1-11" value="Generiranje novih vrijednosti" style="rounded=1;whiteSpace=wrap;html=1;arcSize=40;fontColor=#000000;fillColor=#ffffc0;strokeColor=#ff0000;" parent="UOArGjMOnj6770dY3t-1-1" vertex="1">
          <mxGeometry x="307.5" y="350" width="120" height="40" as="geometry" />
        </mxCell>
        <mxCell id="UOArGjMOnj6770dY3t-1-12" value="" style="edgeStyle=orthogonalEdgeStyle;html=1;verticalAlign=bottom;endArrow=open;endSize=8;strokeColor=#ff0000;" parent="UOArGjMOnj6770dY3t-1-1" source="UOArGjMOnj6770dY3t-1-11" target="UOArGjMOnj6770dY3t-1-6" edge="1">
          <mxGeometry relative="1" as="geometry">
            <mxPoint x="360" y="450" as="targetPoint" />
            <Array as="points">
              <mxPoint x="190" y="370" />
              <mxPoint x="190" y="140" />
            </Array>
          </mxGeometry>
        </mxCell>
        <mxCell id="UOArGjMOnj6770dY3t-1-13" value="" style="ellipse;html=1;shape=endState;fillColor=#000000;strokeColor=#ff0000;" parent="UOArGjMOnj6770dY3t-1-1" vertex="1">
          <mxGeometry x="625" y="280" width="30" height="30" as="geometry" />
        </mxCell>
        <mxCell id="4PJM5I0rMs1RmTHC2o5Z-0" style="edgeStyle=orthogonalEdgeStyle;rounded=0;orthogonalLoop=1;jettySize=auto;html=1;entryX=0.5;entryY=0;entryDx=0;entryDy=0;" edge="1" parent="UOArGjMOnj6770dY3t-1-1" source="Vs49O1Ujdl4DnX6av6ZH-0" target="UOArGjMOnj6770dY3t-1-13">
          <mxGeometry relative="1" as="geometry" />
        </mxCell>
        <mxCell id="Vs49O1Ujdl4DnX6av6ZH-0" value="Spajanje kvadrata s istim vrijednostima" style="rounded=1;whiteSpace=wrap;html=1;arcSize=40;fontColor=#000000;fillColor=#ffffc0;strokeColor=#ff0000;" vertex="1" parent="UOArGjMOnj6770dY3t-1-1">
          <mxGeometry x="610" y="120" width="120" height="40" as="geometry" />
        </mxCell>
        <mxCell id="Vs49O1Ujdl4DnX6av6ZH-1" value="" style="edgeStyle=orthogonalEdgeStyle;html=1;verticalAlign=bottom;endArrow=open;endSize=8;strokeColor=#ff0000;entryX=1;entryY=0;entryDx=0;entryDy=0;" edge="1" source="Vs49O1Ujdl4DnX6av6ZH-0" parent="UOArGjMOnj6770dY3t-1-1" target="UOArGjMOnj6770dY3t-1-6">
          <mxGeometry relative="1" as="geometry">
            <mxPoint x="640" y="220" as="targetPoint" />
            <Array as="points">
              <mxPoint x="640" y="100" />
              <mxPoint x="401" y="100" />
            </Array>
          </mxGeometry>
        </mxCell>
      </root>
    </mxGraphModel>
  </diagram>
  <diagram id="e_7SzZaCZHgFKO4R4pKn" name="Dijagram klasa arhitekture 2048">
    <mxGraphModel dx="1038" dy="580" grid="1" gridSize="10" guides="1" tooltips="1" connect="1" arrows="1" fold="1" page="1" pageScale="1" pageWidth="827" pageHeight="1169" math="0" shadow="0">
      <root>
        <mxCell id="cslaUj3x76g7m8z14mOE-0" />
        <mxCell id="cslaUj3x76g7m8z14mOE-1" parent="cslaUj3x76g7m8z14mOE-0" />
        <mxCell id="cslaUj3x76g7m8z14mOE-2" value="Kvadratić s vrijednostima" style="swimlane;fontStyle=1;align=center;verticalAlign=top;childLayout=stackLayout;horizontal=1;startSize=26;horizontalStack=0;resizeParent=1;resizeParentMax=0;resizeLast=0;collapsible=1;marginBottom=0;" vertex="1" parent="cslaUj3x76g7m8z14mOE-1">
          <mxGeometry x="90" y="20" width="160" height="34" as="geometry" />
        </mxCell>
        <mxCell id="cslaUj3x76g7m8z14mOE-4" value="" style="line;strokeWidth=1;fillColor=none;align=left;verticalAlign=middle;spacingTop=-1;spacingLeft=3;spacingRight=3;rotatable=0;labelPosition=right;points=[];portConstraint=eastwest;" vertex="1" parent="cslaUj3x76g7m8z14mOE-2">
          <mxGeometry y="26" width="160" height="8" as="geometry" />
        </mxCell>
        <mxCell id="cslaUj3x76g7m8z14mOE-6" value="Igrač&#xa;" style="swimlane;fontStyle=1;align=center;verticalAlign=top;childLayout=stackLayout;horizontal=1;startSize=26;horizontalStack=0;resizeParent=1;resizeParentMax=0;resizeLast=0;collapsible=1;marginBottom=0;" vertex="1" parent="cslaUj3x76g7m8z14mOE-1">
          <mxGeometry x="80" y="120" width="160" height="34" as="geometry" />
        </mxCell>
        <mxCell id="cslaUj3x76g7m8z14mOE-8" value="" style="line;strokeWidth=1;fillColor=none;align=left;verticalAlign=middle;spacingTop=-1;spacingLeft=3;spacingRight=3;rotatable=0;labelPosition=right;points=[];portConstraint=eastwest;" vertex="1" parent="cslaUj3x76g7m8z14mOE-6">
          <mxGeometry y="26" width="160" height="8" as="geometry" />
        </mxCell>
        <mxCell id="cslaUj3x76g7m8z14mOE-10" value="Ploča s kvadratićima (4x4)&#xa;" style="swimlane;fontStyle=1;align=center;verticalAlign=top;childLayout=stackLayout;horizontal=1;startSize=26;horizontalStack=0;resizeParent=1;resizeParentMax=0;resizeLast=0;collapsible=1;marginBottom=0;" vertex="1" parent="cslaUj3x76g7m8z14mOE-1">
          <mxGeometry x="360" y="20" width="160" height="34" as="geometry" />
        </mxCell>
        <mxCell id="cslaUj3x76g7m8z14mOE-12" value="" style="line;strokeWidth=1;fillColor=none;align=left;verticalAlign=middle;spacingTop=-1;spacingLeft=3;spacingRight=3;rotatable=0;labelPosition=right;points=[];portConstraint=eastwest;" vertex="1" parent="cslaUj3x76g7m8z14mOE-10">
          <mxGeometry y="26" width="160" height="8" as="geometry" />
        </mxCell>
        <mxCell id="cslaUj3x76g7m8z14mOE-19" value="Igra" style="swimlane;fontStyle=1;align=center;verticalAlign=top;childLayout=stackLayout;horizontal=1;startSize=26;horizontalStack=0;resizeParent=1;resizeParentMax=0;resizeLast=0;collapsible=1;marginBottom=0;" vertex="1" parent="cslaUj3x76g7m8z14mOE-1">
          <mxGeometry x="360" y="120" width="160" height="34" as="geometry" />
        </mxCell>
        <mxCell id="cslaUj3x76g7m8z14mOE-21" value="" style="line;strokeWidth=1;fillColor=none;align=left;verticalAlign=middle;spacingTop=-1;spacingLeft=3;spacingRight=3;rotatable=0;labelPosition=right;points=[];portConstraint=eastwest;" vertex="1" parent="cslaUj3x76g7m8z14mOE-19">
          <mxGeometry y="26" width="160" height="8" as="geometry" />
        </mxCell>
        <mxCell id="cslaUj3x76g7m8z14mOE-23" value="" style="endArrow=none;html=1;edgeStyle=orthogonalEdgeStyle;exitX=0;exitY=0.5;exitDx=0;exitDy=0;entryX=1;entryY=0.5;entryDx=0;entryDy=0;" edge="1" parent="cslaUj3x76g7m8z14mOE-1" source="cslaUj3x76g7m8z14mOE-10" target="cslaUj3x76g7m8z14mOE-2">
          <mxGeometry relative="1" as="geometry">
            <mxPoint x="290" y="170" as="sourcePoint" />
            <mxPoint x="360" y="57" as="targetPoint" />
          </mxGeometry>
        </mxCell>
        <mxCell id="cslaUj3x76g7m8z14mOE-26" value="" style="endArrow=none;html=1;edgeStyle=orthogonalEdgeStyle;exitX=0.5;exitY=0;exitDx=0;exitDy=0;entryX=0.5;entryY=1;entryDx=0;entryDy=0;" edge="1" parent="cslaUj3x76g7m8z14mOE-1" source="cslaUj3x76g7m8z14mOE-19" target="cslaUj3x76g7m8z14mOE-10">
          <mxGeometry relative="1" as="geometry">
            <mxPoint x="330" y="300" as="sourcePoint" />
            <mxPoint x="490" y="300" as="targetPoint" />
          </mxGeometry>
        </mxCell>
        <mxCell id="cslaUj3x76g7m8z14mOE-29" value="" style="endArrow=none;html=1;edgeStyle=orthogonalEdgeStyle;exitX=0;exitY=0.5;exitDx=0;exitDy=0;entryX=1;entryY=0.5;entryDx=0;entryDy=0;" edge="1" parent="cslaUj3x76g7m8z14mOE-1" source="cslaUj3x76g7m8z14mOE-19" target="cslaUj3x76g7m8z14mOE-6">
          <mxGeometry relative="1" as="geometry">
            <mxPoint x="330" y="300" as="sourcePoint" />
            <mxPoint x="490" y="300" as="targetPoint" />
          </mxGeometry>
        </mxCell>
        <mxCell id="cslaUj3x76g7m8z14mOE-32" value="" style="endArrow=none;html=1;edgeStyle=orthogonalEdgeStyle;exitX=0.463;exitY=0.018;exitDx=0;exitDy=0;exitPerimeter=0;entryX=0.438;entryY=0.925;entryDx=0;entryDy=0;entryPerimeter=0;" edge="1" parent="cslaUj3x76g7m8z14mOE-1" source="cslaUj3x76g7m8z14mOE-6" target="cslaUj3x76g7m8z14mOE-4">
          <mxGeometry relative="1" as="geometry">
            <mxPoint x="330" y="300" as="sourcePoint" />
            <mxPoint x="490" y="300" as="targetPoint" />
            <Array as="points">
              <mxPoint x="160" y="121" />
            </Array>
          </mxGeometry>
        </mxCell>
        <mxCell id="cslaUj3x76g7m8z14mOE-36" value="Prikaz igre" style="swimlane;fontStyle=1;align=center;verticalAlign=top;childLayout=stackLayout;horizontal=1;startSize=26;horizontalStack=0;resizeParent=1;resizeParentMax=0;resizeLast=0;collapsible=1;marginBottom=0;" vertex="1" parent="cslaUj3x76g7m8z14mOE-1">
          <mxGeometry x="600" y="120" width="160" height="34" as="geometry" />
        </mxCell>
        <mxCell id="cslaUj3x76g7m8z14mOE-38" value="" style="line;strokeWidth=1;fillColor=none;align=left;verticalAlign=middle;spacingTop=-1;spacingLeft=3;spacingRight=3;rotatable=0;labelPosition=right;points=[];portConstraint=eastwest;" vertex="1" parent="cslaUj3x76g7m8z14mOE-36">
          <mxGeometry y="26" width="160" height="8" as="geometry" />
        </mxCell>
        <mxCell id="cslaUj3x76g7m8z14mOE-40" value="" style="endArrow=none;html=1;edgeStyle=orthogonalEdgeStyle;entryX=0;entryY=0.5;entryDx=0;entryDy=0;" edge="1" parent="cslaUj3x76g7m8z14mOE-1" target="cslaUj3x76g7m8z14mOE-36">
          <mxGeometry relative="1" as="geometry">
            <mxPoint x="520" y="137" as="sourcePoint" />
            <mxPoint x="490" y="300" as="targetPoint" />
          </mxGeometry>
        </mxCell>
      </root>
    </mxGraphModel>
  </diagram>
</mxfile>
